<svg xmlns="http://www.w3.org/2000/svg" viewBox="0 0 206.69 16383"><defs><style>.a{fill:#4290c5;fill-rule:evenodd;}.b{fill:none;}</style></defs><title>always-up</title><path class="a" d="M263,122.84c2.73-4,5.46-8,8.19-12,2.07-3,2.2-3,5-1.25,3.14,2,3.26,1.88,3.61-1.91,0.57-6,1.07-11.91,1.66-17.89,0.38-3.71-.06-3.95-3.54-2.12-5.49,2.89-11,5.74-16.47,8.62-3.07,1.61-3.07,1.88-.34,3.64,3,1.94,3.11,2.07,1,5.16l-8,11.75c-1.44,2.1-1.72,2.22-5.18,2.92a11.32,11.32,0,0,0-5.43,2.76c-2.17,2-2.32,2-5.43,1.82l-17.13-1.21c-2.82-.18-3.08-0.33-5.71-3.19-6.87-7.47-19.93-2.85-19.93,7.35,0,4.13-.16,4.43-1.54,5.83q-6.4,6.47-12.86,12.94c-2,2-2.13,2.07-4.36,1.91-1.91-.12-2.07-0.24-4.14-3.07Q155.18,121.64,138,98.3c-1.19-1.61-1.29-1.82-.66-4.62a11.37,11.37,0,1,0-22.56-2.31c0,3.52-.06,3.58-1.51,5Q102.55,106.67,91.74,117c-1.51,1.46-1.57,1.52-5.52,1.52a11,11,0,1,0,11.42,11c0-3.16.12-3.49,1.6-4.89Q110,114.29,120.79,104c1.79-1.7,2-1.82,4.49-1.64s2.63,0.33,4,2.16q17.23,23.46,34.45,46.86c1.38,1.88,1.44,2.19.75,5.13A11.12,11.12,0,0,0,175.57,170,11.24,11.24,0,0,0,187,159c0-3.74.19-4.13,1.91-5.86q6.45-6.47,12.9-13c1.76-1.7,1.88-1.82,4.83-1.82a11.57,11.57,0,0,0,7.37-2.61c2.67-2.19,3-2.28,5.33-2.13,6.12,0.46,12.21.88,18.33,1.31,2.45,0.18,2.7.27,4.74,2.67,7.53,8.9,22.68,1.94,19.92-9.51-0.72-2.95-.72-3.28.63-5.22h0Zm-11.73,2.28a5.47,5.47,0,1,1-5.65,5.47,5.54,5.54,0,0,1,5.65-5.47h0Zm-44.59-3.28a5.47,5.47,0,1,1-5.65,5.47,5.58,5.58,0,0,1,5.65-5.47h0Zm-31.06,31.68a5.48,5.48,0,1,1-5.65,5.5,5.56,5.56,0,0,1,5.65-5.5h0ZM86.22,124.06a5.47,5.47,0,1,1-5.65,5.47,5.56,5.56,0,0,1,5.65-5.47h0Zm40-38.15a5.47,5.47,0,1,1-5.65,5.47,5.54,5.54,0,0,1,5.65-5.47h0Z" transform="translate(-74.83 8066)"/><line class="b" x1="100.17" x2="100.17" y2="16383"/></svg>