<svg xmlns="http://www.w3.org/2000/svg" viewBox="0 0 185.84 80.67">
  <defs>
    <style>
      .a {
        fill: #4290c5;
        fill-rule: evenodd;
      }
    </style>
  </defs>
  <title>always-up</title>
  <path class="a" d="M251.79,121.83L259.16,111c1.86-2.73,2-2.73,4.48-1.12,2.82,1.78,2.93,1.69,3.24-1.72,0.51-5.35,1-10.71,1.5-16.09,0.34-3.33-.06-3.55-3.19-1.91L250.38,98c-2.76,1.45-2.76,1.69-.31,3.28,2.71,1.75,2.79,1.86.88,4.64l-7.2,10.57c-1.3,1.88-1.55,2-4.65,2.62a10.18,10.18,0,0,0-4.88,2.48c-1.95,1.8-2.09,1.83-4.88,1.64l-15.4-1.09c-2.54-.16-2.77-0.3-5.13-2.87-6.18-6.72-17.92-2.57-17.92,6.61,0,3.71-.14,4-1.38,5.24q-5.75,5.82-11.57,11.63c-1.78,1.8-1.92,1.86-3.92,1.72-1.72-.11-1.86-0.22-3.72-2.76q-15.4-20.93-30.81-41.92c-1.07-1.45-1.16-1.64-.59-4.15a10.22,10.22,0,1,0-20.28-2.07c0,3.17-.06,3.22-1.35,4.45q-9.69,9.3-19.41,18.57c-1.36,1.31-1.41,1.37-5,1.37a9.93,9.93,0,1,0,10.27,9.91c0-2.84.11-3.14,1.44-4.4q9.69-9.3,19.38-18.54c1.61-1.53,1.83-1.64,4-1.47s2.37,0.3,3.58,1.94q15.49,21.1,31,42.14c1.24,1.69,1.3,2,.68,4.62a10,10,0,0,0,10,12.15,10.11,10.11,0,0,0,10.27-9.91c0-3.36.17-3.72,1.72-5.27q5.8-5.82,11.59-11.69c1.58-1.53,1.69-1.64,4.34-1.64a10.4,10.4,0,0,0,6.63-2.35c2.4-2,2.68-2,4.79-1.91,5.5,0.41,11,.79,16.48,1.18,2.2,0.16,2.43.25,4.26,2.4,6.77,8,20.4,1.75,17.91-8.55-0.65-2.65-.65-2.95.56-4.7h0Zm-10.55,2a4.92,4.92,0,1,1-5.08,4.92,5,5,0,0,1,5.08-4.92h0Zm-40.09-2.95a4.92,4.92,0,1,1-5.08,4.92,5,5,0,0,1,5.08-4.92h0Zm-27.93,28.48a4.93,4.93,0,1,1-5.08,4.94,5,5,0,0,1,5.08-4.94h0ZM92.89,122.92a4.92,4.92,0,1,1-5.08,4.92,5,5,0,0,1,5.08-4.92h0Zm36-34.3a4.92,4.92,0,1,1-5.08,4.91,5,5,0,0,1,5.08-4.91h0Z" transform="translate(-82.64 -83.59)"/>
</svg>
