<svg xmlns="http://www.w3.org/2000/svg" viewBox="0 0 821.06 464.49"><defs><style>.a,.b,.d,.e,.j{fill:none;}.a{stroke:#316b92;}.a,.b,.d,.e,.i,.j{stroke-linecap:round;stroke-miterlimit:10;stroke-width:1.6px;}.b{stroke:#173345;}.c{fill:#f8743a;}.d{stroke:#bddbf3;}.e{stroke:#3583bc;}.f{fill:#316b92;}.g{fill:#4290c5;}.h{fill:#005780;}.i{fill:#3583bc;}.i,.j{stroke:#dfedf9;}</style></defs><title>fission</title><line class="a" x1="595.81" y1="151.34" x2="581.63" y2="68.07"/><line class="a" x1="770.16" y1="178.25" x2="594.66" y2="149.93"/><line class="b" x1="594.44" y1="148.21" x2="337.98" y2="295.09"/><ellipse class="c" cx="644.09" cy="166.38" rx="7.86" ry="7.87" transform="matrix(0.04, -1, 1, 0.04, 404.56, 785.47)"/><ellipse class="c" cx="670.82" cy="57.49" rx="7.86" ry="7.87" transform="translate(539.11 707.33) rotate(-87.88)"/><ellipse class="c" cx="820.55" cy="197.44" rx="6.7" ry="6.71" transform="translate(543.44 991.72) rotate(-87.88)"/><line class="a" x1="340.29" y1="139.55" x2="205.07" y2="111.96"/><line class="a" x1="340.29" y1="139.55" x2="309.19" y2="59.74"/><circle class="c" cx="254.48" cy="130.35" r="7.52" transform="translate(65.38 361.44) rotate(-87.88)"/><circle class="c" cx="358.6" cy="78.13" r="6.58" transform="translate(217.83 415.2) rotate(-87.88)"/><path class="d" d="M389.69,158.13" transform="translate(-49.41 -18.39)"/><path class="d" d="M389.69,158.13" transform="translate(-49.41 -18.39)"/><line class="b" x1="345.4" y1="143.88" x2="579.28" y2="322.29"/><circle class="c" cx="389.69" cy="158.13" r="6.58" transform="translate(167.82 523.31) rotate(-87.88)"/><path class="d" d="M286.53,102.26" transform="translate(-49.41 -18.39)"/><path class="e" d="M760.79,266.81" transform="translate(-49.41 -18.39)"/><circle class="c" cx="531.57" cy="63.75" r="7.15"/><circle class="f" cx="762.84" cy="224.21" r="6.58"/><circle class="c" cx="286.57" cy="164.73" r="6.58"/><circle class="g" cx="650.41" cy="96.02" r="5.45"/><circle class="g" cx="564.7" cy="98.92" r="4.89"/><circle class="g" cx="762.73" cy="122.9" r="4.89"/><circle class="g" cx="269.84" cy="182.98" r="6.58"/><circle class="g" cx="327.38" cy="34.98" r="6.58"/><circle class="c" cx="286.57" cy="39.11" r="4.89"/><circle class="c" cx="630.96" cy="86.72" r="7.15" transform="translate(471.51 695.64) rotate(-87.88)"/><circle class="f" cx="583.87" cy="108.07" r="6.58" transform="translate(404.83 669.14) rotate(-87.88)"/><circle class="f" cx="851.27" cy="166.13" r="2.44" transform="translate(604.31 992.28) rotate(-87.88)"/><circle class="h" cx="606.55" cy="79.98" r="2.44" transform="translate(454.75 664.77) rotate(-87.88)"/><circle class="h" cx="653.77" cy="115.98" r="2.44" transform="translate(464.24 746.62) rotate(-87.88)"/><circle class="g" cx="863.16" cy="126.69" r="4.14" transform="translate(655.17 966.17) rotate(-87.88)"/><circle class="g" cx="673.45" cy="131.5" r="4.14" transform="translate(467.68 781.22) rotate(-87.88)"/><circle class="c" cx="848.3" cy="234.79" r="4.14" transform="translate(532.85 1055.42) rotate(-87.88)"/><circle class="g" cx="588.42" cy="56.35" r="3.2" transform="translate(460.9 623.89) rotate(-87.88)"/><path class="i" d="M730,125.39" transform="translate(-49.41 -18.39)"/><path class="i" d="M729.39,125.39" transform="translate(-49.41 -18.39)"/><circle class="f" cx="634.47" cy="52.47" r="6.58"/><circle class="g" cx="673.22" cy="79.92" r="4.7"/><circle class="g" cx="791.3" cy="255.21" r="4.7"/><circle class="c" cx="645.56" cy="115.16" r="4.89"/><circle class="f" cx="765.17" cy="62.09" r="2.44"/><circle class="f" cx="704.41" cy="103.81" r="2.44"/><circle class="f" cx="818.61" cy="239.74" r="2.44"/><circle class="f" cx="717.68" cy="334.57" r="2.44" transform="translate(-120.65 384.07) rotate(-29.91)"/><circle class="c" cx="657.9" cy="368.47" r="4.14" transform="translate(-145.52 358.78) rotate(-29.91)"/><circle class="f" cx="648.57" cy="397.57" r="2.44" transform="translate(-161.54 386.18) rotate(-32.04)"/><circle class="c" cx="731.75" cy="81.37" r="4.14"/><circle class="c" cx="761.03" cy="11.66" r="4.14"/><circle class="g" cx="718.64" cy="35.94" r="4.14"/><circle class="f" cx="714.96" cy="150.07" r="3.2"/><circle class="g" cx="81.42" cy="371.36" r="4.89"/><circle class="f" cx="23.1" cy="352.28" r="2.44"/><circle class="f" cx="33.65" cy="398.53" r="3.2"/><circle class="f" cx="168.1" cy="7.52" r="7.52"/><circle class="g" cx="232.98" cy="38.31" r="6.58"/><circle class="c" cx="126.16" cy="117.72" r="4.89"/><circle class="f" cx="215.49" cy="62.06" r="2.44"/><circle class="c" cx="114.32" cy="48.89" r="2.44"/><circle class="f" cx="247.83" cy="147.06" r="2.44"/><circle class="g" cx="154.94" cy="44" r="4.14"/><circle class="f" cx="213.04" cy="15.61" r="4.14"/><circle class="c" cx="188.03" cy="40.62" r="4.14"/><circle class="f" cx="133.31" cy="71.65" r="3.2"/><circle class="f" cx="56.94" cy="256.24" r="7.52" transform="translate(-250.38 189.01) rotate(-66.75)"/><circle class="c" cx="73.72" cy="321.99" r="2.44" transform="translate(-300.63 244.23) rotate(-66.75)"/><circle class="g" cx="85.26" cy="282.74" r="4.14" transform="translate(-257.58 231.07) rotate(-66.75)"/><circle class="c" cx="95.21" cy="250.99" r="4.14" transform="translate(-222.39 221.01) rotate(-66.75)"/><circle class="f" cx="102.12" cy="313.52" r="3.2" transform="translate(-275.66 265.2) rotate(-66.75)"/><circle class="c" cx="282.71" cy="297.75" r="4.33" transform="translate(-74.72 550.85) rotate(-87.88)"/><path class="j" d="M662.73,468.22" transform="translate(-49.41 -18.39)"/><line class="e" x1="613.05" y1="457.15" x2="577.35" y2="374.53"/><circle class="c" cx="662.46" cy="475.54" r="7.33" transform="translate(113.29 1101.54) rotate(-87.88)"/><path class="d" d="M626.76,392.93" transform="translate(-49.41 -18.39)"/><line class="b" x1="577.39" y1="373.22" x2="217.24" y2="255.8"/><line class="a" x1="212.65" y1="252.62" x2="48.96" y2="312.8"/><line class="a" x1="212.65" y1="252.62" x2="153.42" y2="165.18"/><circle class="c" cx="96.1" cy="331.48" r="5.64" transform="translate(-288.12 396.85) rotate(-87.88)"/><circle class="c" cx="202.83" cy="183.57" r="6.58" transform="translate(-37.54 361.07) rotate(-87.88)"/><circle class="c" cx="626.76" cy="392.93" r="6.58" transform="translate(161.47 986.31) rotate(-87.88)"/><circle class="c" cx="261.87" cy="271.2" r="6.58" transform="translate(-68.25 504.45) rotate(-87.88)"/><ellipse class="c" cx="631.71" cy="343.54" rx="7.86" ry="7.87" transform="matrix(0.04, -1, 1, 0.04, 215.59, 943.7)"/></svg>