<svg xmlns="http://www.w3.org/2000/svg" viewBox="0 0 184.54 135.19"><defs><style>.a{fill:#4290c5}</style></defs><title>Untitled-1</title><path class="a" d="M92.27 11.26c45.13 0 25.68 76.82 0 77.58-6.81.19-13.26-5.17-18-13.19-2.52-4.25-1.9-4.69 2.39-2.44a5.68 5.68 0 0 1 2.36 1.81c2.29 3.39 7.47 4.82 11.47 4.82 16.8 0 16.8-17.41 0-17.41-2.23 0-4.45.86-6.42-.16-5.31-2.76-10.61-5.55-15.95-8.31a4.28 4.28 0 0 1-2.33-3.3c-2.55-19.56 3.8-39.38 26.5-39.41zm-32.1 43.5c7.76 4.06 15.49 8.08 23.25 12.11 2.19 1.17 4.49-.1 7-.1 10.81 0 10.81 8.69 0 8.69-3.77 0-6.95-1.33-7.89-3.17a4.19 4.19 0 0 0-1.9-1.9l-26.92-14c-2.45-1.27-2.19-16.93-1.51-22 .3-2.25 1.34-.57 1.64-2.25a40.69 40.69 0 0 1 7.81-18.44c14.31-18.26 46.93-18.26 61.25 0a40.75 40.75 0 0 1 7.73 18.2c.49 2.7 1.44.7 1.74 2.47.82 5 .36 15.82-.49 19.85-.33 1.52-.75 1.52-2.85 1.3-2.29-.26-2.72-.38-2.52-2.06 1.47-12.43.82-27-7.14-37.16C106.89.38 77.71.38 65.23 16.3c-7.53 9.57-8.52 23.08-7.37 35a4.15 4.15 0 0 0 2.33 3.43zm112.6 30.81c14.87-22.22 15.95-59.73 1.51-82.27-1.64-2.5-2.13-2.5-4.68-.73-2.26 1.55-2.36 2-1 4.22 12.38 20.77 12.05 55.1-1.44 75.24-1.28 1.93-1.57 2.41 1 4.22s3.14 1.62 4.68-.67zm-12-8.94c10.65-17.06 10-47.56 1-65.34-1.21-2.44-1.7-2.79-4.58-1.17-2.59 1.43-2.52 1.87-1.44 4.06 8 15.76 8.74 43.94-.69 59.06-1.31 2.06-1.47 2.41 1 4.15 2.62 1.84 3.14 1.81 4.75-.76zm-12.28-9.13c9.1-15.25 7.47-31.89.13-47.65-1.21-2.6-1.77-2.69-4.49-1.36s-2.72 1.75-1.64 4.06c6.48 13.85 8.16 28.31.16 41.75-1.24 2.06-1.44 2.5 1.21 4.15s3.24 1.36 4.62-1zm-13.67-30.53V52.7c0 1.3.23 1.74 2.23 1.74 2.19 0 2.26-.41 2.26-1.74V36.97c0-1.33-.16-1.74-2.23-1.74s-2.26.41-2.26 1.74zm30.43 79c-3.67-6.56-7.3-13.1-11-19.66-1.74-3.14-4.22-3-27.58-9a7.47 7.47 0 0 0-8 2.16q-10.07 11.08-20.14 22.13c-4.45 4.88-6.78 4.91-11.33.13q-10.71-11.22-21.45-22.42c-2.52-2.63-4.32-2.95-7.83-2.06-25 6.5-25.94 5.93-27.71 9.1-3.67 6.56-7.3 13.12-11 19.66-3.7 6.69-3.64 8.46 4.88 10.68 45 11.67 90.59 11 136.18 0 8.32-2 8.81-3.65 4.88-10.68zM11.77 85.57C-3.1 63.35-4.23 25.84 10.3 3.3c1.51-2.35 2-2.57 4.65-.73 2.39 1.62 2.29 2.25 1 4.22C2.85 27.18 3.9 61.92 17.36 82.03c1.41 2.09 1.51 2.47-.92 4.22s-3.15 1.65-4.72-.67zm12-8.94c-10.64-17.06-10-47.56-1-65.34 1.31-2.57 1.7-2.82 4.62-1.17 2.52 1.4 2.55 1.81 1.41 4.06-8 15.79-8.74 43.94.72 59.06 1.31 2.12 1.24 2.54-1 4.15-2.85 2-3.27 1.65-4.75-.76zm12.25-9.13c-9.07-15.25-7.47-31.89-.1-47.65 1.18-2.54 1.61-2.76 4.26-1.46 2.82 1.36 2.88 2 1.87 4.09-6.58 14.11-8 28.69.23 42.48 1 1.74.82 2-1.8 3.58-2.29 1.43-3 1.43-4.45-1zm13.72-30.53V52.7c0 1.3-.13 1.74-2.23 1.74s-2.26-.32-2.26-1.74V36.97c0-1.33.16-1.74 2.23-1.74s2.26.41 2.26 1.74z"/></svg>