<svg xmlns="http://www.w3.org/2000/svg" viewBox="0 0 121.2 132"><defs><style>.a{fill:#4290c5;fill-rule:evenodd}</style></defs><title>always-up</title><path class="a" d="M60.6 14.64c33.46 0 60.6 26.28 60.6 58.66s-27.15 58.69-60.6 58.69S0 105.71 0 73.3s27.12-58.66 60.6-58.66zm.06 50.81a8.32 8.32 0 0 1 7.11 4c1.49 2.43 1.6 2.76 2.91 3.29 2.23.94 4.45 1.85 6.68 2.79 5.65 2.38 2 10.67-3.71 8.32l-6.14-2.57c-2.06-.86-2.28-.86-4.25-.22a6.37 6.37 0 0 1-1.6.36c-1.8.22-1.94.44-2.85 2.51-3.28 7.24-6.59 14.51-9.88 21.77-1.37 3.07-6.17 1-4.8-2 3.4-7.46 6.76-14.95 10.16-22.41.57-1.24.51-1.44-.92-4a7.65 7.65 0 0 1-1-3.79 8.13 8.13 0 0 1 8.25-8zm-.06 51.87c25.09 0 45.45-19.7 45.45-44s-20.35-44-45.45-44-45.47 19.7-45.47 44 20.35 44 45.47 44zM54.78 0a5.2 5.2 0 0 0-5.28 5.11v4.2c0 2.32.34 2.82 3.45 2.46a67.43 67.43 0 0 1 15.3 0c3.11.36 3.45-.14 3.45-2.46v-4.2A5.23 5.23 0 0 0 66.39 0H54.78zM9.88 18.57c-2.68 2.71-5.37 5.42-8 8.12a5 5 0 0 0 .14 7.24l3.69 3.43c1.43 1.33 1.77 1.27 2.83-.14a62.79 62.79 0 0 1 12.5-12.66c1.51-1.16 1.46-1.44.14-2.65s-2.54-2.35-3.8-3.51a5.44 5.44 0 0 0-7.51.17zm101.45 0c2.65 2.71 5.34 5.42 8 8.12a5 5 0 0 1-.17 7.24 301.1 301.1 0 0 1-3.71 3.43c-1.4 1.33-1.77 1.27-2.8-.14a64.32 64.32 0 0 0-12.5-12.66c-1.54-1.16-1.46-1.44-.14-2.65l3.8-3.51a5.44 5.44 0 0 1 7.51.17z"/></svg>