<svg xmlns="http://www.w3.org/2000/svg" viewBox="0 0 821.06 464.49"><defs><style>.a,.b,.d,.e,.j{fill:none}.a{stroke:#316b92}.a,.b,.d,.e,.i,.j{stroke-linecap:round;stroke-miterlimit:10;stroke-width:1.6px}.b{stroke:#173345}.c{fill:#f8743a}.d{stroke:#bddbf3}.e{stroke:#3583bc}.f{fill:#316b92}.g{fill:#4290c5}.h{fill:#005780}.i{fill:#3583bc}.i,.j{stroke:#dfedf9}</style></defs><title>fission</title><path class="a" d="M595.81 151.34l-14.18-83.27M770.16 178.25l-175.5-28.32"/><path class="b" d="M594.44 148.21L337.98 295.09"/><ellipse class="c" cx="644.09" cy="166.38" rx="7.86" ry="7.87" transform="rotate(-87.7 610.87 181.875)"/><ellipse class="c" cx="670.82" cy="57.49" rx="7.86" ry="7.87" transform="rotate(-87.88 636.554 73.947)"/><ellipse class="c" cx="820.55" cy="197.44" rx="6.7" ry="6.71" transform="rotate(-87.88 786.275 213.895)"/><path class="a" d="M340.29 139.55l-135.22-27.59M340.29 139.55l-31.1-79.81"/><circle class="c" cx="254.48" cy="130.35" r="7.52" transform="rotate(-87.88 220.224 146.797)"/><circle class="c" cx="358.6" cy="78.13" r="6.58" transform="rotate(-87.88 324.342 94.58)"/><path class="b" d="M345.4 143.88l233.88 178.41"/><circle class="c" cx="389.69" cy="158.13" r="6.58" transform="rotate(-87.88 355.43 174.58)"/><circle class="c" cx="531.57" cy="63.75" r="7.15"/><circle class="f" cx="762.84" cy="224.21" r="6.58"/><circle class="c" cx="286.57" cy="164.73" r="6.58"/><circle class="g" cx="650.41" cy="96.02" r="5.45"/><circle class="g" cx="564.7" cy="98.92" r="4.89"/><circle class="g" cx="762.73" cy="122.9" r="4.89"/><circle class="g" cx="269.84" cy="182.98" r="6.58"/><circle class="g" cx="327.38" cy="34.98" r="6.58"/><circle class="c" cx="286.57" cy="39.11" r="4.89"/><circle class="c" cx="630.96" cy="86.72" r="7.15" transform="rotate(-87.88 596.69 103.176)"/><circle class="f" cx="583.87" cy="108.07" r="6.58" transform="rotate(-87.88 549.6 124.523)"/><circle class="f" cx="851.27" cy="166.13" r="2.44" transform="rotate(-87.88 817 182.593)"/><circle class="h" cx="606.55" cy="79.98" r="2.44" transform="rotate(-87.88 572.292 96.437)"/><circle class="h" cx="653.77" cy="115.98" r="2.44" transform="rotate(-87.88 619.505 132.438)"/><circle class="g" cx="863.16" cy="126.69" r="4.14" transform="rotate(-87.88 828.884 143.15)"/><circle class="g" cx="673.45" cy="131.5" r="4.14" transform="rotate(-87.88 639.177 147.954)"/><circle class="c" cx="848.3" cy="234.79" r="4.14" transform="rotate(-87.88 814.03 251.24)"/><circle class="g" cx="588.42" cy="56.35" r="3.2" transform="rotate(-87.88 554.156 72.806)"/><circle class="f" cx="634.47" cy="52.47" r="6.58"/><circle class="g" cx="673.22" cy="79.92" r="4.7"/><circle class="g" cx="791.3" cy="255.21" r="4.7"/><circle class="c" cx="645.56" cy="115.16" r="4.89"/><circle class="f" cx="765.17" cy="62.09" r="2.44"/><circle class="f" cx="704.41" cy="103.81" r="2.44"/><circle class="f" cx="818.61" cy="239.74" r="2.44"/><circle class="f" cx="717.68" cy="334.57" r="2.44" transform="rotate(-29.91 658.618 417.88)"/><circle class="c" cx="657.9" cy="368.47" r="4.14" transform="rotate(-29.91 598.842 451.79)"/><circle class="f" cx="648.57" cy="397.57" r="2.44" transform="rotate(-32.04 591.73 474.398)"/><circle class="c" cx="731.75" cy="81.37" r="4.14"/><circle class="c" cx="761.03" cy="11.66" r="4.14"/><circle class="g" cx="718.64" cy="35.94" r="4.14"/><circle class="f" cx="714.96" cy="150.07" r="3.2"/><circle class="g" cx="81.42" cy="371.36" r="4.89"/><circle class="f" cx="23.1" cy="352.28" r="2.44"/><circle class="f" cx="33.65" cy="398.53" r="3.2"/><circle class="f" cx="168.1" cy="7.52" r="7.52"/><circle class="g" cx="232.98" cy="38.31" r="6.58"/><circle class="c" cx="126.16" cy="117.72" r="4.89"/><circle class="f" cx="215.49" cy="62.06" r="2.44"/><circle class="c" cx="114.32" cy="48.89" r="2.44"/><circle class="f" cx="247.83" cy="147.06" r="2.44"/><circle class="g" cx="154.94" cy="44" r="4.14"/><circle class="f" cx="213.04" cy="15.61" r="4.14"/><circle class="c" cx="188.03" cy="40.62" r="4.14"/><circle class="f" cx="133.31" cy="71.65" r="3.2"/><circle class="f" cx="56.94" cy="256.24" r="7.52" transform="rotate(-66.75 18.27 284.546)"/><circle class="c" cx="73.72" cy="321.99" r="2.44" transform="rotate(-66.75 35.058 350.296)"/><circle class="g" cx="85.26" cy="282.74" r="4.14" transform="rotate(-66.75 46.594 311.04)"/><circle class="c" cx="95.21" cy="250.99" r="4.14" transform="rotate(-66.75 56.554 279.3)"/><circle class="f" cx="102.12" cy="313.52" r="3.2" transform="rotate(-66.75 63.46 341.83)"/><circle class="c" cx="282.71" cy="297.75" r="4.33" transform="rotate(-87.88 248.45 314.194)"/><path class="e" d="M613.05 457.15l-35.7-82.62"/><circle class="c" cx="662.46" cy="475.54" r="7.33" transform="rotate(-87.88 628.18 491.99)"/><path class="b" d="M577.39 373.22L217.24 255.8"/><path class="a" d="M212.65 252.62L48.96 312.8M212.65 252.62l-59.23-87.44"/><circle class="c" cx="96.1" cy="331.48" r="5.64" transform="rotate(-87.88 61.846 347.916)"/><circle class="c" cx="202.83" cy="183.57" r="6.58" transform="rotate(-87.88 168.572 200.013)"/><circle class="c" cx="626.76" cy="392.93" r="6.58" transform="rotate(-87.88 592.483 409.376)"/><circle class="c" cx="261.87" cy="271.2" r="6.58" transform="rotate(-87.88 227.61 287.637)"/><ellipse class="c" cx="631.71" cy="343.54" rx="7.86" ry="7.87" transform="rotate(-87.7 598.806 359.264)"/></svg>