<svg xmlns="http://www.w3.org/2000/svg" viewBox="0 0 183.83 114.17"><defs><style>.a{fill:#4290c5;fill-rule:evenodd}</style></defs><title>simple</title><path class="a" d="M139.49.64c3.64-1.31 4.11-1.11 6.73 4.06 2.16 4.18 2.58 4.38 6 4.54 3.68.21 4.06 0 6.34-3.77 3-5.08 3.55-5.2 6.77-3.76 3.72 1.59 3.89 2.21 2.11 7.29-1.61 4.63-1.52 5.08.89 7.7s2.87 2.66 7.06 1.6c5.92-1.56 6.39-1.35 7.7 2 1.4 3.6 1.23 4.09-4.27 6.76-4.1 2-4.4 2.46-4.57 5.77-.21 3.56 0 3.93 4 6.14 5.08 2.87 5.29 3.4 3.72 6.67s-2.2 3.6-7.53 1.84c-4.74-1.56-5.24-1.35-7.78.86s-2.87 2.78-1.69 7c1.52 5.57 1.4 6.1-2.2 7.41s-4.19 1-6.81-4.13c-2.07-4.05-2.33-4.3-6.09-4.46-3.55-.2-3.93-.08-6.3 3.89-2.92 5-3.38 5.12-6.85 3.6s-3.76-2-1.86-7.45c1.52-4.34 1.4-4.91-1-7.49s-2.88-2.66-7.28-1.52c-5.88 1.52-6.18 1.23-7.57-2.37-1.36-3.4-1.1-3.81 4.14-6.31 4.32-2.09 4.57-2.37 4.82-6.06.17-3.36 0-3.77-4-6-5.08-2.83-5.29-3.36-3.68-6.84 1.48-3.15 2-3.48 7.53-1.68 4.65 1.52 5.2 1.39 7.74-.82 2.71-2.41 2.83-2.91 1.61-7.33-1.48-5.28-1.4-5.73 2.32-7.09zM14.42 30.01c2.92-2.5 3.55-2.46 7.49 1 3 2.66 3.76 2.74 7.4.94s4.15-2.46 3.68-6.55c-.55-5.12-.34-5.65 3.64-6.47 3.43-.7 4.1-.24 5.58 4.38 1.31 4 1.86 4.42 7 4.71 5.37.29 5.88 0 7.49-3.11 2.71-5.16 3.13-5.32 6.73-4s3.76 2 2.24 7.29c-.93 3.23-.76 4 3.76 7.45 3.51 2.7 4.32 2.83 8.16.66 4.57-2.58 5.2-2.46 7.32.37 2.28 3 2 3.81-1.78 7.09-3.34 2.87-3.47 3.56-1.86 7.9 1.73 4.75 2.41 5.24 6.56 5.48 5.5.29 6.13.86 6.3 4.38s-.38 4.05-5.41 4.79c-4.61.66-5.2 1.39-6.3 5.81s-.68 5.57 2.41 7.74c4.78 3.32 5 3.93 3.13 7-1.95 3.23-2.54 3.44-7.49 1.23-4.27-1.84-5-1.68-8.5 1.56s-3.72 4.09-2.2 7.82c2.07 5.24 1.82 6-1.4 7.57-3.43 1.68-4.1 1.35-7.11-3.2-2.28-3.48-3.13-3.81-7.78-2.95-4.86.9-5.46 1.56-6.39 5.77-1.1 5.24-1.61 5.69-5 5.32-4.19-.45-4.48-1-4.44-6.1 0-4.5-.38-5.12-5.08-7-4.48-1.72-5.16-1.64-8.41 1.52-3.93 3.81-4.48 3.93-7.49 1.55s-2.87-3 0-7.33c2.37-3.48 2.41-4.26-.47-8.19S12.56 80.18 8.59 81c-5.75 1.19-6.22.86-7.36-2.54-1.18-3.56-1-4 4.36-6.26 3.68-1.56 4-2.17 3.81-6.92-.21-5-.59-5.65-4.44-7.08-5.24-1.92-5.54-2.34-4.53-6.06 1-3.48 1.48-3.77 6.64-2.91 4.19.66 4.9.33 7.44-3.81 2.79-4.58 2.71-5.12.25-8.35-3.13-4.18-3.09-4.79-.38-7.17zm29.06 30.5a4.58 4.58 0 0 1 6.3.37 4.23 4.23 0 0 1-.34 6.1 4.57 4.57 0 0 1-6.3-.33 4.24 4.24 0 0 1 .34-6.14zm-9.26-22.4a30.16 30.16 0 0 1 19.49-1.67c3.76.9 3.81 1.43 1.82 4.75-1.57 2.62-3.17 5.28-4.74 7.9-1.94 3.19-2.41 3.52-5.41 3.77-3.3.33-4.1 0-6.34-2.42l-6.33-6.88c-2.88-3.07-3-3.44 1.52-5.44zm34 6.8a27.94 27.94 0 0 1 7.32 16.38c.38 4.5 0 4.79-4.69 3.81-3-.62-6-1.27-9-1.88s-3.47-.86-5.24-4.3c-1.44-2.74-1.48-3 .34-6.06l4.82-8c2.29-3.81 2.71-3.93 6.43 0zm3.89 32.3a29 29 0 0 1-13.7 12.28c-4.86 2.13-5.46 2-6-2.91-.29-2.91-.59-5.77-.89-8.64-.34-3.36-.21-3.69 2.5-6.06s3-2.5 6.51-1.76l8.25 1.72c5.12 1.11 5.45 1.64 3.34 5.36zm-31.3 14.21a29 29 0 0 1-16-8.85c-3.68-4-3.6-4.38 1.22-6.47l8.08-3.44c3.22-1.39 3.55-1.39 6.34.33 3.3 2 3.47 2.29 3.85 5.77q.45 4.23.89 8.47c.51 4.75 0 5-4.36 4.18zM17.5 66.81a27.78 27.78 0 0 1 4.06-17.73c2.46-3.89 2.88-3.89 5.8-.74 2.11 2.29 4.27 4.59 6.39 6.88 2.37 2.58 2.5 3.15 1.78 5.85-.89 3.44-1.18 3.77-4.27 5.12-2.79 1.15-5.54 2.33-8.29 3.52-4.65 2-4.95 1.76-5.46-2.91zm83.62-13.76c3.43-1.84 3.89-1.68 7.27 3 2.75 3.81 3.21 4 6.64 3.69 3.68-.37 4.06-.57 5.71-4.67 2.2-5.44 2.71-5.65 6.13-4.71 3.93 1.11 4.15 1.64 3.17 6.92-.89 4.79-.72 5.24 2.07 7.49s3.21 2.25 7.23.57c5.63-2.38 6.09-2.25 7.91.86 1.9 3.36 1.82 3.89-3.22 7.29-3.76 2.5-4 3.07-3.64 6.35.34 3.56.63 3.89 4.86 5.53 5.46 2.09 5.75 2.58 4.74 6.1s-1.65 3.85-7.19 2.87c-4.95-.86-5.41-.62-7.61 2s-2.37 3.15-.59 7.12c2.37 5.28 2.28 5.81-1.06 7.62s-4 1.59-7.36-3.11c-2.66-3.69-3-3.89-6.68-3.56-3.55.33-3.89.53-5.62 4.79-2.2 5.28-2.58 5.53-6.26 4.5s-4-1.39-3-7.12c.8-4.46.64-5-2.11-7.25s-3.26-2.21-7.4-.49c-5.63 2.38-6 2.13-7.87-1.23-1.86-3.15-1.69-3.6 3.13-6.84 4-2.7 4.19-3 3.85-6.67-.34-3.36-.59-3.73-4.91-5.36-5.41-2-5.71-2.54-4.65-6.23 1-3.32 1.44-3.73 7.23-2.7 4.82.82 5.33.62 7.49-2 2.33-2.74 2.37-3.23.51-7.45-2.24-5-2.29-5.45 1.18-7.33zm7.23 13.43a18.76 18.76 0 0 1 25.08 6.88 17.55 17.55 0 0 1-7.14 24.28 18.73 18.73 0 0 1-25.08-6.88 17.53 17.53 0 0 1 7.11-24.28zm6.81 11.79a4.59 4.59 0 0 1 6.09 1.68 4.29 4.29 0 0 1-1.73 5.9 4.59 4.59 0 0 1-6.09-1.68 4.29 4.29 0 0 1 1.73-5.9zm-4.78-8.31a14.52 14.52 0 0 1 19.45 5.36 13.59 13.59 0 0 1-5.54 18.83 14.52 14.52 0 0 1-19.46-5.36 13.59 13.59 0 0 1 5.54-18.83zm32.63-53.15a18.76 18.76 0 0 1 25.08 6.88 17.55 17.55 0 0 1-7.11 24.28 18.73 18.73 0 0 1-25.08-6.88 17.53 17.53 0 0 1 7.11-24.28zm6.78 11.83a4.59 4.59 0 0 1 6.09 1.68 4.29 4.29 0 0 1-1.73 5.9 4.59 4.59 0 0 1-6.09-1.68 4.29 4.29 0 0 1 1.73-5.9zm-4.78-8.31a14.52 14.52 0 0 1 19.46 5.31 13.59 13.59 0 0 1-5.54 18.83 14.52 14.52 0 0 1-19.46-5.36 13.59 13.59 0 0 1 5.54-18.83z"/></svg>